<svg xmlns="http://www.w3.org/2000/svg" viewBox="0 0 800 500" width="800" height="500">
  <defs>
    <radialGradient id="tableS" cx="50%" cy="50%" r="75%">
      <stop offset="0%" stop-color="#4E342E"/>
      <stop offset="100%" stop-color="#3E2723"/>
    </radialGradient>
    <filter id="shS"><feDropShadow dx="0" dy="8" stdDeviation="10" flood-opacity="0.4"/></filter>
  </defs>
  <rect width="800" height="500" fill="url(#tableS)"/>
  <!-- Orange-rimmed takeout tray (as in actual photos - white container with red tray) -->
  <!-- Red tray -->
  <rect x="100" y="200" width="600" height="240" rx="16" fill="#C62828" filter="url(#shS)"/>
  <rect x="106" y="195" width="588" height="235" rx="14" fill="#D32F2F"/>
  <!-- White container -->
  <rect x="118" y="185" width="564" height="220" rx="12" fill="white"/>
  <rect x="122" y="189" width="556" height="212" rx="10" fill="#FAFAFA"/>

  <!-- Salad contents -->
  <!-- Base greens -->
  <ellipse cx="400" cy="295" rx="240" ry="90" fill="#66BB6A" opacity="0.85"/>
  <!-- Romaine/lettuce layers -->
  <path d="M165,290 Q225,255 285,278 Q340,298 400,272 Q460,250 520,274 Q580,296 635,282 Q600,320 540,308 Q480,294 420,310 Q360,322 300,308 Q240,294 165,290Z" fill="#81C784" opacity="0.9"/>
  <path d="M175,285 Q230,265 290,278 Q350,290 410,272 Q470,255 525,272 Q580,285 622,278" fill="#A5D6A7" opacity="0.6"/>
  <!-- Cabbage shreds -->
  <path d="M200,268 Q230,254 258,268 Q230,278 200,268Z" fill="#C5E1A5"/>
  <path d="M310,260 Q340,248 368,260 Q340,270 310,260Z" fill="#DCEDC8"/>
  <path d="M420,264 Q450,252 478,264 Q450,274 420,264Z" fill="#C5E1A5"/>
  <path d="M530,266 Q558,254 585,266 Q558,276 530,266Z" fill="#DCEDC8"/>
  <path d="M255,282 Q283,270 310,282 Q283,292 255,282Z" fill="#C5E1A5" opacity="0.7"/>
  <path d="M365,278 Q393,266 420,278 Q393,288 365,278Z" fill="#DCEDC8" opacity="0.7"/>

  <!-- Shredded carrots - orange strips -->
  <rect x="230" y="275" width="48" height="9" rx="4" fill="#FF9800" transform="rotate(-15,254,279)"/>
  <rect x="355" y="268" width="44" height="8" rx="4" fill="#FF9800" transform="rotate(8,377,272)"/>
  <rect x="480" y="276" width="42" height="8" rx="4" fill="#FFB74D" transform="rotate(-10,501,280)"/>
  <rect x="290" y="292" width="38" height="7" rx="3" fill="#FF9800" transform="rotate(5,309,295)"/>
  <rect x="445" y="290" width="40" height="8" rx="4" fill="#FFB74D" transform="rotate(-8,465,294)"/>

  <!-- Tomato halves -->
  <circle cx="205" cy="290" r="20" fill="#E53935"/>
  <circle cx="205" cy="290" r="17" fill="#EF5350"/>
  <path d="M188,287 Q205,280 222,287" stroke="#FFCDD2" stroke-width="2" fill="none"/>
  <circle cx="598" cy="286" r="19" fill="#E53935"/>
  <circle cx="598" cy="286" r="16" fill="#EF5350"/>
  <path d="M582,283 Q598,276 614,283" stroke="#FFCDD2" stroke-width="2" fill="none"/>

  <!-- Corn kernels cluster -->
  <ellipse cx="400" cy="300" rx="32" ry="15" fill="#FFF9C4"/>
  <circle cx="380" cy="298" r="6" fill="#FFD600"/>
  <circle cx="392" cy="295" r="6" fill="#FFEB3B"/>
  <circle cx="404" cy="298" r="6" fill="#FFD600"/>
  <circle cx="416" cy="295" r="6" fill="#FFEB3B"/>
  <circle cx="386" cy="306" r="6" fill="#FFD600"/>
  <circle cx="398" cy="304" r="6" fill="#FFEB3B"/>
  <circle cx="410" cy="307" r="6" fill="#FFD600"/>

  <!-- Black beans scattered -->
  <ellipse cx="330" cy="292" rx="9" ry="7" fill="#212121"/>
  <ellipse cx="346" cy="298" rx="8" ry="6" fill="#212121"/>
  <ellipse cx="455" cy="294" rx="9" ry="7" fill="#212121"/>
  <ellipse cx="470" cy="300" rx="8" ry="6" fill="#212121"/>

  <!-- Avocado slices (2) -->
  <ellipse cx="265" cy="278" rx="28" ry="16" fill="#8BC34A"/>
  <ellipse cx="265" cy="278" rx="20" ry="11" fill="#558B2F"/>
  <circle cx="265" cy="278" r="7" fill="#8D6E63"/>
  <ellipse cx="540" cy="275" rx="28" ry="16" fill="#8BC34A"/>
  <ellipse cx="540" cy="275" rx="20" ry="11" fill="#558B2F"/>
  <circle cx="540" cy="275" r="7" fill="#8D6E63"/>

  <!-- Cilantro-lime dressing drizzle -->
  <path d="M190,270 Q260,252 340,264 Q400,274 460,260 Q540,248 612,266" stroke="#C5E1A5" stroke-width="5" fill="none" stroke-linecap="round" opacity="0.9"/>
  <path d="M200,280 Q270,264 350,274 Q410,282 470,268 Q545,256 608,274" stroke="rgba(255,255,255,0.6)" stroke-width="3" fill="none" stroke-linecap="round"/>

  <!-- Tortilla strips on top -->
  <rect x="300" y="248" width="80" height="10" rx="5" fill="#F9A825" transform="rotate(-20,340,253)"/>
  <rect x="380" y="244" width="70" height="10" rx="5" fill="#FFB300" transform="rotate(15,415,249)"/>
  <rect x="450" y="252" width="65" height="10" rx="5" fill="#F9A825" transform="rotate(-8,482,257)"/>

  <!-- Lime wedges on rim of container -->
  <g transform="translate(155,170)">
    <path d="M0,0 L28,0 Q35,16 20,24 Q5,16 0,0Z" fill="#C5E1A5"/>
    <path d="M3,8 L25,8" stroke="#8BC34A" stroke-width="1.5" fill="none"/>
    <circle cx="14" cy="0" r="3" fill="#FFA000"/>
  </g>
  <g transform="translate(618,165)">
    <path d="M0,0 L26,0 Q33,15 19,23 Q5,15 0,0Z" fill="#C5E1A5"/>
    <path d="M2,7 L24,7" stroke="#8BC34A" stroke-width="1.5" fill="none"/>
    <circle cx="13" cy="0" r="2.5" fill="#FFA000"/>
  </g>

  <text x="400" y="42" text-anchor="middle" font-family="'Poppins',Arial,sans-serif" font-size="26" fill="#66BB6A" letter-spacing="4">★★★★★</text>
  <text x="400" y="72" text-anchor="middle" font-family="'Poppins',Arial,sans-serif" font-size="15" fill="rgba(255,255,255,0.9)" font-weight="700" letter-spacing="1">FRESH MEXICAN SALAD — SOFIA'S OSOYOOS</text>
</svg>