<svg xmlns="http://www.w3.org/2000/svg" viewBox="0 0 600 400" width="600" height="400">
  <defs>
    <radialGradient id="bg5" cx="50%" cy="50%" r="70%">
      <stop offset="0%" stop-color="#e8f5e9"/>
      <stop offset="100%" stop-color="#c8e6c9"/>
    </radialGradient>
  </defs>
  <rect width="600" height="400" fill="url(#bg5)"/>
  <!-- Plate -->
  <ellipse cx="300" cy="235" rx="215" ry="125" fill="white" stroke="#eeeeee" stroke-width="3"/>
  <ellipse cx="300" cy="235" rx="200" ry="112" fill="none" stroke="#f5f5f5" stroke-width="2"/>
  <!-- Salad base - greens -->
  <ellipse cx="300" cy="240" rx="170" ry="90" fill="#66bb6a" opacity="0.7"/>
  <!-- Lettuce leaves -->
  <path d="M160,240 Q200,200 240,230 Q280,260 320,230 Q360,200 400,240 Q360,280 320,260 Q280,240 240,260 Q200,280 160,240Z" fill="#81c784" opacity="0.8"/>
  <path d="M170,235 Q210,205 250,225 Q290,245 330,225 Q370,205 390,235" fill="#a5d6a7" opacity="0.6"/>
  <!-- Cabbage shreds -->
  <path d="M200,215 Q220,195 240,215 Q220,225 200,215Z" fill="#c5e1a5"/>
  <path d="M300,210 Q320,195 340,215 Q320,225 300,210Z" fill="#c5e1a5"/>
  <path d="M250,250 Q270,235 290,255 Q270,265 250,250Z" fill="#c5e1a5"/>
  <!-- Carrots -->
  <rect x="230" y="235" width="35" height="8" rx="4" fill="#ff9800" transform="rotate(-15,247,239)"/>
  <rect x="310" y="245" width="30" height="8" rx="4" fill="#ff9800" transform="rotate(10,325,249)"/>
  <rect x="265" y="220" width="28" height="7" rx="3" fill="#ffb74d" transform="rotate(-5,279,223)"/>
  <!-- Tomatoes -->
  <circle cx="210" cy="255" r="14" fill="#e53935"/>
  <circle cx="210" cy="255" r="12" fill="#ef5350"/>
  <circle cx="380" cy="250" r="13" fill="#e53935"/>
  <circle cx="380" cy="250" r="11" fill="#ef5350"/>
  <!-- Corn kernels -->
  <ellipse cx="295" cy="265" rx="5" ry="6" fill="#ffd600"/>
  <ellipse cx="308" cy="262" rx="5" ry="6" fill="#ffd600"/>
  <ellipse cx="321" cy="265" rx="5" ry="6" fill="#ffd600"/>
  <ellipse cx="283" cy="263" rx="5" ry="6" fill="#ffd600"/>
  <!-- Dressing drizzle -->
  <path d="M200,225 Q240,210 280,220 Q320,230 360,215 Q390,205 415,220" stroke="white" stroke-width="4" fill="none" stroke-linecap="round" opacity="0.9"/>
  <!-- Avocado slices -->
  <ellipse cx="260" cy="240" rx="20" ry="12" fill="#8bc34a" opacity="0.9"/>
  <ellipse cx="260" cy="240" rx="14" ry="8" fill="#558b2f"/>
  <circle cx="260" cy="240" r="5" fill="#8d4e2a"/>
  <ellipse cx="340" cy="235" rx="20" ry="12" fill="#8bc34a" opacity="0.9"/>
  <ellipse cx="340" cy="235" rx="14" ry="8" fill="#558b2f"/>
  <circle cx="340" cy="235" r="5" fill="#8d4e2a"/>
  <!-- Title -->
  <text x="300" y="50" text-anchor="middle" font-family="Arial, sans-serif" font-size="22" fill="#4caf50">★★★★★</text>
  <text x="300" y="73" text-anchor="middle" font-family="Arial, sans-serif" font-size="13" fill="#795548" font-weight="bold">Fresh Mexican Salad</text>
</svg>
